<svg width="64" height="64" viewBox="0 0 64 64" fill="none" xmlns="http://www.w3.org/2000/svg">
  <rect width="64" height="64" rx="14" fill="#0E3D3A"/>
  <path d="M24 18c-4.5 0-8 3.4-8 7.6 0 1.6.5 3 1.4 4.2-.9 1.1-1.4 2.5-1.4 4 0 3.6 2.8 6.5 6.4 6.9.6 2.9 3.2 5.1 6.2 5.1V18.2c-1.4-.1-3-.2-4.6-.2Z" fill="#E8B04B"/>
  <path d="M40 18c4.5 0 8 3.4 8 7.6 0 1.6-.5 3-1.4 4.2.9 1.1 1.4 2.5 1.4 4 0 3.6-2.8 6.5-6.4 6.9-.6 2.9-3.2 5.1-6.2 5.1V18.2c1.4-.1 3-.2 4.6-.2Z" fill="#F6F1E7"/>
  <circle cx="32" cy="32" r="2.5" fill="#0E3D3A"/>
  <path d="M32 14v6M32 44v6" stroke="#E8B04B" stroke-width="2.4" stroke-linecap="round"/>
</svg>
